<?xml version="1.0" encoding="utf-8"?>
<!-- Svg Vector Icons : http://www.onlinewebfonts.com/icon -->
<!DOCTYPE svg PUBLIC "-//W3C//DTD SVG 1.1//EN" "http://www.w3.org/Graphics/SVG/1.1/DTD/svg11.dtd">
<svg version="1.1" xmlns="http://www.w3.org/2000/svg" xmlns:xlink="http://www.w3.org/1999/xlink" x="0px" y="0px" viewBox="0 0 1000 1000" enable-background="new 0 0 1000 1000" xml:space="preserve">
<metadata> Svg Vector Icons : http://www.onlinewebfonts.com/icon </metadata>
<g><g transform="matrix(1 0 0 -1 0 1920)"><path d="M120.4,1628.5c-5.8,11-8.7,22.5-8.7,34.3c0,8.5,1.4,16.8,4.3,24.9c2.9,8,6.8,15.2,11.9,21.5s11,11.6,18.1,16c7,4.4,14.6,7.5,22.6,9.2c-0.5,4.8-0.8,9.4-0.8,13.9c0,25.1,6.2,48.3,18.5,69.7c12.3,21.3,29.1,38.2,50.5,50.5c21.3,12.3,44.6,18.5,69.7,18.5c27.6,0,52.8-7.5,75.5-22.4c22.7-14.9,39.6-34.6,50.7-58.9c11,3.5,22.3,5.3,33.9,5.3c23.4,0,44.4-6.9,63.3-20.7c18.8-13.8,32-31.6,39.5-53.5c-53,32.6-109.6,49-169.9,49c-58.3,0-112-14.2-161.4-42.6C188.7,1714.6,149.5,1676.4,120.4,1628.5z M932.4,1528.3c-24.9,32.1-55.9,57.4-93,75.9c-37.2,18.5-77.1,27.7-119.8,27.7c-15.6,0-29.6-1-42.2-3c-22.3,36.4-51,67.4-85.9,93c10,26.6,26.7,48.2,50.1,64.8c23.4,16.6,49.7,24.9,79.1,24.9c27.6,0,52.8-7.5,75.5-22.4c22.7-14.9,39.6-34.6,50.7-58.9c11,3.5,22.3,5.3,33.9,5.3c30.1,0,55.9-10.9,77.2-32.6c21.3-21.7,32-47.6,32-77.8c0-20.6-5.2-39.5-15.6-56.7C963.9,1551.2,950,1537.8,932.4,1528.3z M154.6,1137.7c-26.1,0-50.3,6.7-72.7,20.1c-22.3,13.4-39.9,31.5-52.7,54.2c-12.8,22.7-19.2,47.1-19.2,73.3c0,34.7,10.8,65.6,32.4,92.8c21.6,27.2,48.7,44.4,81.4,51.4c-1,9.3-1.5,18.7-1.5,28.2c0,37.7,7.3,73.6,22,107.7c14.7,34.1,34.4,63.6,59.1,88.3c24.7,24.7,54.2,44.4,88.3,59.1s70.1,22,107.7,22c36.9,0,72.1-6.9,105.5-20.7c33.4-13.8,62.6-33,87.8-57.6c25.1-24.6,44.8-52.9,59.1-84.7c22.1,7,44.7,10.5,67.8,10.5c29.6,0,58-5.9,85.1-17.7c27.1-11.8,50.4-27.7,69.9-47.8c19.5-20.1,35-43.8,46.5-71.2c11.5-27.4,17.3-55.9,17.3-85.5c0-35.7-7.9-69.1-23.7-100.4s-37.5-57.2-65-78c-27.5-20.7-58.2-34.1-92.1-40.1L559.1,1485c-10.8,18.8-25.2,33.6-43.1,44.3c-18,10.7-37.5,16-58.6,16c-21.1,0-40.6-5.3-58.6-16c-18-10.7-32.3-25.4-43.1-44.3L155,1137.7H154.6z M217.1,953.2c-11.5,0-21.8,2.4-30.9,7.2c-9,4.8-16.1,11.5-21.1,20.3c-4.5,7.8-6.8,16.4-6.8,26c0,10.8,3.1,21.6,9.4,32.4l239.9,415.8c5.8,9.8,13.1,17.3,21.8,22.4c8.8,5.1,18.1,7.7,27.9,7.7c9.8,0,19.1-2.6,27.9-7.7c8.8-5.1,16.1-12.6,21.8-22.4L747.1,1039c6.3-10.8,9.4-21.6,9.4-32.4c0-9.5-2.3-18.2-6.8-26c-5-8.8-12.1-15.6-21.3-20.3c-9.2-4.8-19.4-7.2-30.7-7.2H217.1z M679.3,1021l-221.8,384.2L235.6,1021H679.3z M447.3,1137.7c-4.8,0-9,1.8-12.8,5.5c-3.8,3.6-6.2,8-7.2,13l-18.8,113.7c-0.3,1-0.4,2.1-0.4,3.4c0,4.3,1.3,7.8,3.8,10.7c2.5,2.9,5.8,4.3,9.8,4.3h68.5c2.5,0,4.8-0.7,7-2.1c2.1-1.4,3.8-3.2,4.9-5.5c1.1-2.3,1.7-4.8,1.7-7.5c0-1.3-0.1-2.4-0.4-3.4l-18.8-113.7c-0.8-3.3-2.1-6.3-4-9.2c-1.9-2.9-4.3-5.1-7.2-6.8c-2.9-1.6-5.8-2.4-8.9-2.4H447.3z M427.7,1062.4c-2.5,0-4.7,0.9-6.6,2.8c-1.9,1.9-2.8,4.1-2.8,6.6v18.8c0,2.5,0.9,4.7,2.8,6.6c1.9,1.9,4.1,2.8,6.6,2.8h56.5c2.5,0,4.7-0.9,6.6-2.8c1.9-1.9,2.8-4.1,2.8-6.6v-18.8c0-1.3-0.3-2.4-0.8-3.6c-0.5-1.1-1.2-2.1-2.1-3s-1.9-1.6-3-2.1s-2.3-0.8-3.6-0.8H427.7z"/></g></g>
</svg>